<svg width="37" height="37" viewBox="0 0 37 37" fill="none" xmlns="http://www.w3.org/2000/svg">
<path d="M18.5625 36.5625C8.61895 36.5625 0.562501 28.506 0.562502 18.5625C0.562502 8.61895 8.61895 0.562498 18.5625 0.562498C28.5061 0.562499 36.5625 8.61895 36.5625 18.5625C36.5625 28.506 28.506 36.5625 18.5625 36.5625ZM26.9819 15.369L18.5625 15.369L18.5625 10.223C18.5625 9.44637 17.619 9.05444 17.0746 9.60605L8.77863 17.9456C8.4375 18.2867 8.4375 18.831 8.77863 19.1722L17.0746 27.5189C17.6262 28.0706 18.5625 27.6786 18.5625 26.902L18.5625 21.756L26.9819 21.756C27.4609 21.756 27.8528 21.3641 27.8528 20.8851L27.8528 16.2399C27.8528 15.7609 27.4609 15.369 26.9819 15.369Z" fill="#1E293B"/>
</svg>
