<svg width="37" height="37" viewBox="0 0 37 37" fill="none" xmlns="http://www.w3.org/2000/svg">
<path d="M18.125 0.125C28.0685 0.125 36.125 8.18145 36.125 18.125C36.125 28.0685 28.0685 36.125 18.125 36.125C8.18145 36.125 0.125 28.0685 0.125 18.125C0.125 8.18145 8.18145 0.125 18.125 0.125ZM9.70564 21.3185H18.125V26.4645C18.125 27.2411 19.0685 27.6331 19.6129 27.0814L27.9089 18.7419C28.25 18.4008 28.25 17.8565 27.9089 17.5153L19.6129 9.16855C19.0613 8.61694 18.125 9.00887 18.125 9.78548V14.9315H9.70564C9.22661 14.9315 8.83468 15.3234 8.83468 15.8024V20.4476C8.83468 20.9266 9.22661 21.3185 9.70564 21.3185Z" fill="#1E293B"/>
</svg>
