<svg width="32" height="32" viewBox="0 0 32 32" fill="none" xmlns="http://www.w3.org/2000/svg">
<path fill-rule="evenodd" clip-rule="evenodd" d="M4 0C1.79086 0 0 1.79086 0 4V28C0 30.2091 1.79086 32 4 32H28C30.2091 32 32 30.2091 32 28V4C32 1.79086 30.2091 0 28 0H4ZM19.38 7C19.3799 8.0374 19.7566 9.03953 20.44 9.82C21.8 11.39 23.68 11.3 23.68 11.3V14.39C22.1374 14.3926 20.633 13.9099 19.38 13.01V19.3C19.38 22.45 16.83 25 13.69 25C10.76 25 8 22.63 8 19.3C8 15.88 11.02 13.2 14.47 13.66V16.82C12.76 16.29 11.1 17.58 11.1 19.3C11.1 20.74 12.28 21.9 13.7 21.9C14.3716 21.9004 15.0171 21.6399 15.5003 21.1735C15.9835 20.7071 16.2667 20.0712 16.29 19.4V7H19.38Z" fill="#1E293B"/>
</svg>
