<svg width="32" height="32" viewBox="0 0 32 32" fill="none" xmlns="http://www.w3.org/2000/svg">
<path fill-rule="evenodd" clip-rule="evenodd" d="M4 0C1.79086 0 0 1.79086 0 4V28C0 30.2091 1.79086 32 4 32H28C30.2091 32 32 30.2091 32 28V4C32 1.79086 30.2091 0 28 0H4ZM13.8653 12.9085V18.4409C14.3665 18.1822 14.8593 17.9298 15.3399 17.6836C16.7413 16.9657 18.0394 16.3008 19.1429 15.6849C18.5993 15.3959 18.0812 15.1123 17.5684 14.8316C16.3869 14.1849 15.234 13.5539 13.8653 12.9085ZM23.2684 9.25785C23.8688 9.36868 24.4106 9.68849 24.7978 10.1605H24.797C25.972 12.0116 26.0721 20.3513 24.605 21.8183C24.2304 22.1867 23.7534 22.4336 23.2364 22.5271C17.4879 22.9603 9.83251 22.7834 8.34656 22.4782C7.84465 22.3862 7.38173 22.1459 7.01734 21.7887C6.7111 21.4389 6.49454 21.0201 6.38635 20.5679C6.00481 19.2888 5.50758 11.3914 7.09363 9.9145C7.45795 9.57526 7.91183 9.34724 8.40154 9.25785C10.205 8.91405 21.4633 8.91405 23.2684 9.25785Z" fill="#1E293B"/>
</svg>
